<?xml version="1.0" encoding="utf-8"?>
<!-- Generator: Adobe Illustrator 16.0.0, SVG Export Plug-In . SVG Version: 6.00 Build 0)  -->
<!DOCTYPE svg PUBLIC "-//W3C//DTD SVG 1.1//EN" "http://www.w3.org/Graphics/SVG/1.1/DTD/svg11.dtd">
<svg version="1.1" xmlns="http://www.w3.org/2000/svg" xmlns:xlink="http://www.w3.org/1999/xlink" x="0px" y="0px" width="80px"
	 height="80px" viewBox="0 0 80 80" enable-background="new 0 0 80 80" xml:space="preserve">
<g id="Buscador">
</g>
<g id="section_1">
	<g>
		<path fill="#E14F38" d="M79.997,39.506c0.285,22.096-17.408,40.219-39.495,40.491C18.406,80.269,0.286,62.587,0.003,40.489
			C-0.266,18.396,17.424,0.271,39.519,0.003C61.604-0.271,79.729,17.411,79.997,39.506z"/>
		<g>
			<g>
				<polygon fill="#FFFFFF" points="50.202,22.549 48.649,23.573 49.915,24.938 48.162,25.558 49.061,27.187 47.211,27.367 
					47.694,29.164 45.854,28.897 45.895,30.758 44.173,30.061 43.768,31.876 42.262,30.785 41.432,32.449 40.23,31.03 39.03,32.449 
					38.199,30.785 36.693,31.876 36.289,30.061 34.563,30.757 34.606,28.897 32.765,29.162 33.249,27.367 31.398,27.185 
					32.298,25.558 30.546,24.936 31.812,23.573 30.259,22.549 31.812,21.526 30.546,20.162 32.298,19.54 31.399,17.913 
					33.25,17.731 32.767,15.937 34.608,16.201 34.566,14.342 36.289,15.037 36.693,13.225 38.2,14.313 39.03,12.648 40.23,14.068 
					41.432,12.648 42.263,14.313 43.769,13.225 44.173,15.037 45.897,14.343 45.854,16.201 47.695,15.938 47.212,17.732 
					49.062,17.915 48.163,19.542 49.915,20.162 48.649,21.526 				"/>
				<g>
					<g>
						<path fill="#E14F38" d="M40.23,30.619c-4.449,0-8.069-3.62-8.069-8.07c0-4.449,3.62-8.069,8.069-8.069S48.3,18.1,48.3,22.549
							C48.3,26.999,44.68,30.619,40.23,30.619z M40.23,15.496c-3.889,0-7.052,3.164-7.052,7.053s3.163,7.053,7.052,7.053
							s7.052-3.164,7.052-7.053S44.119,15.496,40.23,15.496z"/>
					</g>
				</g>
				<g>
					<g>
						<path fill="#E14F38" d="M39.75,27.708v-1.271c-0.729-0.011-1.482-0.238-1.922-0.553l0.301-0.842
							c0.452,0.302,1.105,0.542,1.811,0.542c0.892,0,1.495-0.517,1.495-1.232c0-0.691-0.49-1.119-1.42-1.496
							c-1.281-0.502-2.073-1.08-2.073-2.174c0-1.044,0.741-1.836,1.897-2.023v-1.27h0.778v1.219c0.756,0.025,1.271,0.226,1.635,0.44
							l-0.314,0.829c-0.264-0.15-0.779-0.427-1.583-0.427c-0.969,0-1.333,0.577-1.333,1.081c0,0.652,0.465,0.979,1.56,1.433
							c1.294,0.527,1.946,1.182,1.946,2.301c0,0.992-0.69,1.922-1.985,2.136v1.307H39.75z"/>
					</g>
				</g>
			</g>
			<g>
				<path fill="#FFFFFF" d="M53.259,35.531c-0.973-1.346-3.088-0.517-4.727,1.854c-0.022,0.035-0.045,0.073-0.069,0.106
					c-2.236-1.848-5.104-2.958-8.232-2.958s-5.996,1.11-8.233,2.958c-0.024-0.033-0.046-0.071-0.068-0.106
					c-1.639-2.371-3.755-3.2-4.727-1.854c-0.971,1.345-0.434,4.35,1.197,6.719c-0.703,1.595-1.096,3.355-1.096,5.209
					c0,3.893,1.722,7.38,4.443,9.751l0.629,5.51h2.945l0.694-3.039c1.321,0.455,2.739,0.706,4.215,0.706s2.894-0.251,4.215-0.706
					l0.694,3.039h2.945l0.629-5.51c2.721-2.371,4.443-5.858,4.443-9.751c0-1.854-0.393-3.614-1.097-5.209
					C53.692,39.881,54.229,36.876,53.259,35.531z"/>
				<circle fill="#E14F38" cx="40.23" cy="48.933" r="6.212"/>
				<g>
					<circle fill="#FFFFFF" cx="37.455" cy="48.933" r="1.42"/>
					<circle fill="#FFFFFF" cx="43.006" cy="48.933" r="1.42"/>
				</g>
				<g>
					<g>
						<g>
							<path fill="#E14F38" d="M36.942,40.832c-0.48-0.592-1.203-0.976-2.026-0.976c-1.448,0-2.622,1.172-2.622,2.622
								c0,0.579,0.193,1.11,0.513,1.545C33.702,42.477,35.18,41.313,36.942,40.832z"/>
						</g>
						<g>
							<path fill="#E14F38" d="M47.654,44.023c0.319-0.435,0.513-0.966,0.513-1.545c0-1.45-1.174-2.622-2.622-2.622
								c-0.822,0-1.547,0.384-2.027,0.976C45.281,41.313,46.759,42.477,47.654,44.023z"/>
						</g>
					</g>
				</g>
			</g>
		</g>
	</g>
</g>
<g id="auxiliares" display="none">
</g>
<g id="Guias" display="none">
</g>
<g id="slider">
</g>
<g id="section_2">
</g>
<g id="botones">
</g>
<g id="footer">
</g>
<g id="navbar">
</g>
<g id="top_bar">
</g>
</svg>
