<?xml version="1.0" encoding="utf-8"?>
<!-- Generator: Adobe Illustrator 16.0.0, SVG Export Plug-In . SVG Version: 6.00 Build 0)  -->
<!DOCTYPE svg PUBLIC "-//W3C//DTD SVG 1.1//EN" "http://www.w3.org/Graphics/SVG/1.1/DTD/svg11.dtd">
<svg version="1.1" xmlns="http://www.w3.org/2000/svg" xmlns:xlink="http://www.w3.org/1999/xlink" x="0px" y="0px" width="80px"
	 height="80px" viewBox="0 0 80 80" enable-background="new 0 0 80 80" xml:space="preserve">
<g id="Buscador">
</g>
<g id="section_1">
	<g>
		<path fill="#E14F38" d="M79.997,39.506c0.284,22.096-17.408,40.219-39.495,40.492C18.406,80.268,0.286,62.586,0.003,40.49
			C-0.266,18.396,17.424,0.271,39.519,0.002C61.604-0.27,79.729,17.412,79.997,39.506z"/>
		<g>
			<g>
				<g>
					<g>
						<path fill="#FFFFFF" d="M51.394,49.418c0-2.584,2.103-4.686,4.686-4.686c2.584,0,4.685,2.102,4.685,4.686
							s-2.101,4.686-4.685,4.686C53.496,54.104,51.394,52.002,51.394,49.418z M52.549,49.418c0,1.947,1.584,3.531,3.53,3.531
							s3.529-1.584,3.529-3.531c0-1.945-1.583-3.529-3.529-3.529S52.549,47.473,52.549,49.418z"/>
					</g>
				</g>
				<g>
					<g>
						<path fill="#FFFFFF" d="M14.576,49.418c0-2.584,2.103-4.686,4.686-4.686s4.685,2.102,4.685,4.686s-2.102,4.686-4.685,4.686
							S14.576,52.002,14.576,49.418z M15.732,49.418c0,1.947,1.583,3.531,3.529,3.531s3.53-1.584,3.53-3.531
							c0-1.945-1.584-3.529-3.53-3.529S15.732,47.473,15.732,49.418z"/>
					</g>
				</g>
				<g>
					<path fill="#FFFFFF" d="M25.247,49.063c0-1.254-0.419-2.41-1.114-3.346h26.368v4.26H25.164
						C25.215,49.678,25.247,49.375,25.247,49.063z"/>
				</g>
				<g>
					<g>
						<path fill="#FFFFFF" d="M53.239,33.139v11.295c0.908-0.629,2.009-1,3.195-1c3.103,0,5.628,2.525,5.628,5.629
							c0,0.313-0.032,0.615-0.08,0.914h4.949v-9.098c-6.159-7.74,0,0-6.159-7.74H53.239z M57.326,34.828l2.366-0.133l4.815,6.049
							h-7.182V34.828z"/>
					</g>
				</g>
				<g>
					<circle fill="#FFFFFF" cx="56.079" cy="49.418" r="2.313"/>
				</g>
				<g>
					<circle fill="#FFFFFF" cx="19.262" cy="49.418" r="2.312"/>
				</g>
				<g>
					<g>
						<path fill="#FFFFFF" d="M15.814,23.646v19.473h34.687V23.646H15.814z M41.562,26.541h3.575v11.141h-3.575V26.541z
							 M34.767,26.541h3.575v11.141h-3.575V26.541z M27.972,26.541h3.576v11.141h-3.576V26.541z M21.178,26.541h3.575v11.141h-3.575
							V26.541z"/>
					</g>
				</g>
			</g>
		</g>
	</g>
</g>
<g id="auxiliares" display="none">
</g>
<g id="Guias" display="none">
</g>
<g id="slider">
</g>
<g id="section_2">
</g>
<g id="botones">
</g>
<g id="footer">
</g>
<g id="navbar">
</g>
<g id="top_bar">
</g>
</svg>
