<?xml version="1.0" encoding="utf-8"?>
<!-- Generator: Adobe Illustrator 16.0.0, SVG Export Plug-In . SVG Version: 6.00 Build 0)  -->
<!DOCTYPE svg PUBLIC "-//W3C//DTD SVG 1.1//EN" "http://www.w3.org/Graphics/SVG/1.1/DTD/svg11.dtd">
<svg version="1.1" xmlns="http://www.w3.org/2000/svg" xmlns:xlink="http://www.w3.org/1999/xlink" x="0px" y="0px" width="80px"
	 height="80px" viewBox="0 0 80 80" enable-background="new 0 0 80 80" xml:space="preserve">
<g id="Buscador">
</g>
<g id="section_1">
	<g>
		<path fill="#E14F38" d="M79.997,39.506c0.283,22.096-17.408,40.219-39.496,40.49C18.406,80.268,0.286,62.586,0.003,40.49
			C-0.266,18.396,17.423,0.271,39.518,0.004C61.604-0.27,79.728,17.412,79.997,39.506z"/>
		<g>
			<rect x="15.847" y="29.314" fill="#FFFFFF" width="48.307" height="21.371"/>
			<polygon fill="#E14F38" points="59.295,48.482 20.704,48.482 17.847,45.627 17.847,34.373 20.704,31.516 59.295,31.516 
				62.153,34.373 62.153,45.627 			"/>
			<g>
				<g>
					<g>
						<path fill="#E14F38" d="M23.897,43.59c-1.98,0-3.59-1.609-3.59-3.59s1.609-3.59,3.59-3.59c1.979,0,3.59,1.609,3.59,3.59
							S25.876,43.59,23.897,43.59z M23.897,37.734c-1.25,0-2.266,1.018-2.266,2.266s1.016,2.266,2.266,2.266
							c1.249,0,2.265-1.018,2.265-2.266S25.146,37.734,23.897,37.734z"/>
						<path fill="#E14F38" d="M55.419,43.59c-1.979,0-3.59-1.609-3.59-3.59s1.61-3.59,3.59-3.59c1.98,0,3.59,1.609,3.59,3.59
							S57.399,43.59,55.419,43.59z M55.419,37.734c-1.25,0-2.266,1.018-2.266,2.266s1.016,2.266,2.266,2.266
							c1.249,0,2.266-1.018,2.266-2.266S56.668,37.734,55.419,37.734z"/>
						<rect x="26.825" y="39.301" fill="#E14F38" width="25.666" height="1.396"/>
					</g>
				</g>
				<circle fill="#FFFFFF" cx="40" cy="40" r="7.831"/>
			</g>
			<g>
				<g>
					<path fill="#E14F38" d="M39.562,44.512v-1.143c-0.656-0.012-1.335-0.215-1.73-0.5l0.271-0.756
						c0.406,0.271,0.996,0.486,1.629,0.486c0.804,0,1.347-0.465,1.347-1.109c0-0.623-0.44-1.008-1.278-1.348
						c-1.154-0.451-1.867-0.973-1.867-1.957c0-0.939,0.667-1.652,1.709-1.822v-1.143h0.701v1.098
						c0.68,0.021,1.143,0.203,1.471,0.396l-0.282,0.748c-0.237-0.137-0.702-0.387-1.427-0.387c-0.871,0-1.199,0.521-1.199,0.975
						c0,0.586,0.419,0.881,1.404,1.289c1.164,0.475,1.754,1.064,1.754,2.07c0,0.895-0.623,1.732-1.789,1.926v1.176H39.562z"/>
				</g>
			</g>
		</g>
	</g>
</g>
<g id="auxiliares" display="none">
</g>
<g id="Guias" display="none">
</g>
<g id="slider">
</g>
<g id="section_2">
</g>
<g id="botones">
</g>
<g id="footer">
</g>
<g id="navbar">
</g>
<g id="top_bar">
</g>
</svg>
